<svg xmlns="http://www.w3.org/2000/svg" viewBox="0 0 32 32" role="img" aria-label="\Äít">
  <rect width="32" height="32" rx="7" fill="#0D1015"/>
  <path fill="#E8FF3F" d="M7.2 19.8h17.6c.9 0 1.6-.7 1.5-1.6l-.4-2.8c-.2-1.2-1.1-2.1-2.3-2.3l-2.1-.3c-.5-.1-.9-.4-1.1-.8l-1.3-2.4c-.4-.7-1.1-1.1-1.9-1.1h-3.6c-.7 0-1.4.4-1.8 1l-1.5 2.3c-.3.5-.8.8-1.4.9l-1.8.3c-1.2.2-2.1 1.1-2.3 2.3l-.4 2.8c-.1.9.6 1.6 1.5 1.6z"/>
  <rect x="12.5" y="13.2" width="9" height="1.6" rx="0.6" fill="#FF5A1F"/>
  <circle cx="11.2" cy="21.4" r="2.35" fill="#0D1015" stroke="#E8FF3F" stroke-width="1.6"/>
  <circle cx="21.2" cy="21.4" r="2.35" fill="#0D1015" stroke="#E8FF3F" stroke-width="1.6"/>
  <circle cx="11.2" cy="21.4" r="0.85" fill="#E8FF3F"/>
  <circle cx="21.2" cy="21.4" r="0.85" fill="#E8FF3F"/>
</svg>
